<?xml version="1.0" standalone="no"?>
<!DOCTYPE svg PUBLIC "-//W3C//DTD SVG 20010904//EN"
 "http://www.w3.org/TR/2001/REC-SVG-20010904/DTD/svg10.dtd">
<svg version="1.0" xmlns="http://www.w3.org/2000/svg"
 width="1242.000000pt" height="1242.000000pt" viewBox="0 0 1242.000000 1242.000000"
 preserveAspectRatio="xMidYMid meet" fill="currentColor">

<g transform="translate(0.000000,1242.000000) scale(0.100000,-0.100000)"
fill="#000000" stroke="none">
<path d="M8460 10086 c-62 -17 -106 -42 -162 -89 -57 -47 -185 -194 -257 -294
-53 -74 -59 -78 -126 -88 -22 -3 -60 -10 -85 -15 -25 -5 -81 -14 -125 -20 -71
-10 -173 -30 -300 -60 -22 -5 -80 -18 -130 -30 -49 -11 -106 -24 -125 -30
-320 -90 -338 -96 -550 -172 -438 -156 -859 -377 -1105 -581 -393 -325 -627
-702 -685 -1104 -24 -166 1 -364 61 -488 101 -208 294 -354 537 -404 153 -32
387 11 572 104 265 133 501 427 564 703 22 95 20 182 -5 290 -26 113 -63 164
-121 164 -20 0 -41 -3 -47 -7 -17 -10 -13 -55 9 -84 78 -110 39 -412 -78 -616
-67 -116 -211 -257 -317 -312 -167 -86 -391 -126 -492 -88 -118 45 -219 158
-270 302 -27 74 -28 87 -28 253 0 188 7 235 57 385 95 288 311 572 638 840
174 143 456 306 755 437 49 22 104 46 120 53 290 132 786 285 1038 321 45 6
47 5 47 -18 0 -13 -17 -53 -39 -89 -213 -354 -459 -810 -620 -1151 -28 -60
-73 -155 -101 -212 -71 -151 -150 -324 -150 -331 0 -10 -278 -631 -342 -764
-108 -226 -328 -663 -374 -742 -24 -43 -44 -82 -44 -87 0 -5 -8 -16 -17 -24
-13 -11 -54 -17 -156 -22 -199 -9 -350 -37 -492 -90 -22 -8 -48 -15 -57 -16
-10 0 -18 -4 -18 -10 0 -5 -5 -10 -12 -10 -30 0 -204 -91 -303 -158 -326 -223
-546 -527 -644 -892 -54 -201 -56 -508 -5 -684 8 -27 14 -57 14 -66 0 -30
-323 -216 -530 -305 -47 -20 -98 -43 -115 -50 -45 -20 -303 -96 -390 -116
-176 -38 -457 -52 -618 -29 -40 6 -106 15 -147 21 -267 37 -436 83 -605 164
-192 92 -308 175 -461 330 -85 86 -109 118 -151 201 -138 268 -150 580 -36
939 88 280 379 627 648 775 77 42 85 49 85 70 0 22 -39 33 -88 24 -161 -29
-487 -285 -647 -510 -150 -210 -268 -605 -268 -899 0 -155 15 -258 55 -380
159 -490 655 -811 1400 -910 271 -36 800 -9 1093 55 165 37 264 66 445 133 97
35 406 172 426 188 13 10 30 -7 64 -66 54 -91 169 -231 266 -324 334 -319 762
-469 1237 -433 219 17 370 55 552 141 202 95 399 264 525 451 19 28 40 57 45
64 14 16 35 53 57 99 11 22 26 37 36 37 15 0 17 8 14 68 -4 61 -2 69 21 90
l25 23 41 -71 c22 -40 41 -80 41 -91 0 -16 7 -19 50 -19 28 0 50 5 50 10 0 6
-4 10 -9 10 -4 0 -37 43 -72 96 l-63 96 35 32 c19 17 48 41 65 53 l29 22 -52
0 c-47 1 -51 -1 -46 -20 4 -15 -8 -34 -48 -75 -29 -30 -57 -54 -61 -54 -4 0
-8 68 -8 150 0 141 -1 150 -19 150 -46 0 -46 2 -43 -219 2 -126 -1 -225 -7
-249 -15 -56 -149 -233 -250 -331 -179 -173 -382 -277 -618 -317 -118 -20
-363 -23 -481 -5 -432 64 -793 335 -1001 748 -28 57 -51 105 -51 108 0 3 53
39 118 81 260 169 418 297 630 507 161 159 241 250 363 414 73 97 239 349 274
415 6 13 23 41 36 63 14 22 52 88 84 148 33 59 64 107 70 107 15 0 138 -102
205 -169 97 -99 145 -154 195 -226 94 -136 94 -135 122 -117 15 10 125 442
118 467 -9 34 -303 200 -453 257 -29 11 -55 25 -58 32 -3 7 17 59 44 117 27
57 86 187 131 289 45 102 89 199 96 216 15 33 116 279 147 359 49 128 152 418
208 590 34 105 78 235 97 290 19 55 43 125 53 155 10 30 32 93 50 140 17 47
49 132 70 190 39 108 61 162 86 217 8 17 14 34 14 37 0 9 143 341 195 451 51
109 130 267 165 330 99 179 92 173 215 195 146 26 259 64 389 133 122 65 183
146 193 257 12 125 -55 191 -193 189 -38 0 -89 -6 -114 -13z m65 -191 c28 -27
30 -40 14 -82 -20 -54 -91 -99 -212 -132 -84 -24 -123 -21 -108 7 22 39 180
189 221 210 56 27 56 27 85 -3z m-2571 -3970 c60 -8 114 -19 119 -24 23 -23
-284 -487 -546 -826 -227 -293 -519 -610 -674 -733 -39 -30 -43 -31 -52 -15
-28 53 -41 427 -20 580 46 339 192 623 415 809 75 62 126 94 247 150 50 23
140 46 232 59 121 17 152 17 279 0z"/>
<path d="M6480 4206 c0 -8 5 -18 10 -21 6 -4 10 -78 10 -189 0 -145 -3 -186
-15 -202 -22 -30 -18 -34 30 -34 47 0 58 12 28 29 -16 8 -18 30 -21 183 l-3
173 23 -32 c13 -18 52 -77 88 -132 35 -55 67 -98 71 -95 7 4 71 110 119 199
18 33 37 65 42 70 6 6 8 -67 6 -193 l-3 -202 45 0 c34 0 41 3 32 12 -16 16
-17 400 -1 429 10 19 8 20 -27 17 -33 -3 -41 -9 -63 -49 -90 -158 -127 -219
-133 -216 -4 1 -45 61 -91 132 -76 117 -87 130 -115 133 -23 2 -32 -1 -32 -12z"/>
<path d="M8925 4184 c5 -28 -2 -59 -30 -138 -60 -170 -77 -210 -101 -243 -13
-17 -24 -34 -24 -37 0 -3 20 -6 45 -6 42 0 58 11 35 25 -14 9 -12 45 6 99 l16
47 76 -3 75 -3 24 -64 c13 -35 21 -72 18 -82 -6 -17 -1 -19 49 -19 l55 0 -32
54 c-18 29 -61 133 -97 230 -63 171 -66 176 -94 176 -27 0 -28 -1 -21 -36z
m59 -158 c14 -37 26 -71 26 -75 0 -6 -121 -3 -127 3 -2 1 11 45 29 97 26 79
33 90 39 69 3 -14 18 -56 33 -94z"/>
<path d="M9702 4181 c-8 -4 -12 -19 -10 -32 4 -29 45 -34 61 -7 19 30 -19 60
-51 39z"/>
<path d="M9484 4133 c-6 -24 -17 -42 -31 -48 -21 -9 -32 -26 -15 -24 30 5 32
-3 32 -110 0 -155 17 -191 89 -191 61 0 111 46 111 102 0 17 -5 12 -21 -22
-23 -51 -33 -60 -72 -60 -40 0 -48 32 -45 169 l3 116 33 -3 c18 -2 32 1 32 7
0 6 -20 11 -45 11 l-45 0 20 33 c27 44 25 57 -8 57 -25 0 -30 -5 -38 -37z"/>
<path d="M10147 4163 c-4 -3 -7 -16 -7 -28 0 -22 -22 -48 -50 -58 -11 -4 -9
-7 8 -12 21 -7 22 -12 22 -111 0 -113 14 -165 48 -183 29 -16 84 -14 108 4 24
16 57 80 52 97 -2 6 -15 -11 -29 -38 -20 -41 -29 -49 -55 -52 -50 -5 -59 15
-63 155 l-3 123 35 0 c20 0 39 5 42 10 4 6 -13 10 -45 10 l-51 0 20 26 c29 36
27 64 -2 64 -13 0 -27 -3 -30 -7z"/>
<path d="M7094 4068 c-25 -11 -44 -48 -44 -82 0 -14 -10 -30 -26 -41 -61 -40
-63 -139 -4 -170 47 -24 113 -19 149 11 l31 26 0 -26 c0 -24 3 -26 42 -26 33
0 39 3 30 12 -8 8 -12 51 -12 128 0 123 -8 144 -57 169 -27 14 -81 13 -109 -1z
m90 -30 c29 -41 21 -58 -26 -58 -24 0 -53 -3 -65 -6 -20 -5 -23 -2 -23 20 0
58 82 90 114 44z m0 -74 c12 -4 16 -20 16 -56 0 -78 -37 -128 -94 -128 -44 1
-67 22 -73 68 -8 61 41 108 129 121 3 1 13 -2 22 -5z"/>
<path d="M7731 4070 c-103 -25 -155 -127 -113 -222 15 -35 29 -50 64 -67 52
-25 135 -28 177 -7 61 32 81 118 40 170 l-20 26 20 0 c25 0 25 3 6 40 -26 50
-105 77 -174 60z m100 -39 c16 -16 29 -34 29 -40 0 -14 -176 -15 -185 -1 -4 6
7 24 24 40 41 41 91 41 132 1z m36 -79 c32 -18 48 -66 33 -101 -17 -42 -43
-62 -88 -68 -58 -8 -110 20 -133 71 -24 53 -25 103 -1 109 30 8 168 0 189 -11z"/>
<path d="M7970 4074 c-12 -4 -15 -22 -12 -102 1 -53 7 -114 12 -134 14 -50 52
-78 105 -78 42 0 67 17 93 65 10 17 11 14 12 -22 l0 -43 41 0 c36 0 40 2 33
18 -5 9 -10 81 -12 160 -3 148 -3 148 -48 136 -18 -5 -20 -11 -16 -59 11 -131
-24 -227 -85 -233 -25 -3 -35 2 -50 24 -15 23 -18 50 -19 149 0 111 -2 120
-20 122 -10 0 -26 -1 -34 -3z"/>
<path d="M8310 4074 c-13 -4 -15 -36 -12 -231 2 -125 5 -229 7 -231 2 -3 20
-1 40 2 29 6 34 10 27 24 -5 9 -9 41 -10 70 l-2 52 53 0 c62 0 146 37 171 75
9 13 21 44 28 68 23 89 -39 177 -125 177 -43 0 -79 -28 -107 -85 l-20 -40 2
60 c2 63 -6 72 -52 59z m199 -24 c10 -5 26 -28 35 -52 38 -95 -10 -195 -105
-219 -74 -19 -83 -11 -76 69 8 90 32 156 69 187 32 27 49 30 77 15z"/>
<path d="M9202 4073 c-18 -4 -22 -8 -15 -21 10 -21 10 -227 0 -264 -7 -27 -6
-28 35 -28 l43 0 -3 92 c-4 148 42 246 89 189 10 -13 19 -32 19 -43 0 -26 18
-19 38 15 16 27 16 29 -7 48 -23 19 -76 25 -97 11 -6 -4 -18 -20 -27 -37 l-16
-30 -1 38 c0 39 -3 40 -58 30z"/>
<path d="M9705 4073 c-19 -4 -20 -12 -20 -159 l0 -155 40 3 c30 2 39 7 35 18
-2 8 -6 79 -8 158 -2 101 -7 142 -15 141 -7 -1 -21 -4 -32 -6z"/>
<path d="M9873 4068 c-22 -10 -43 -54 -43 -88 0 -30 37 -66 87 -85 87 -32 113
-47 113 -65 0 -29 -33 -50 -80 -50 -39 0 -48 5 -87 46 -25 25 -46 44 -48 42
-3 -2 -6 -20 -7 -38 -3 -31 1 -37 32 -52 43 -22 130 -23 169 -4 28 15 51 53
51 85 0 26 -45 68 -88 82 -76 24 -112 48 -112 74 0 28 25 45 68 45 29 0 59
-25 82 -69 10 -19 14 -21 21 -10 5 8 9 26 9 40 0 22 -7 30 -40 43 -46 18 -95
20 -127 4z"/>
</g>
</svg>
