<svg width="335" height="200" viewBox="0 0 335 203" fill="none" xmlns="http://www.w3.org/2000/svg">
<path d="M255 203C231.667 203 212.333 194.333 197 177C181 160.333 174.667 137 178 107C179.333 98.3333 181.667 89.6667 185 81C188.333 73 192 65.6667 196 59C200 53 204.667 46.6667 210 40C214.667 34 219.333 29 224 25C228 21 232.333 16.6667 237 12C241 7.33335 244 4.00002 246 2.00001C247.333 0.666693 249 3.45705e-05 251 3.47453e-05C253 3.49201e-05 254.667 1.00002 256 3C256.667 5.66667 256.333 7.66668 255 9.00004C234.333 31.6667 220.333 49.6667 213 63C205.667 77 205.333 87.6667 212 95C218 102.333 226 107.667 236 111C246 115 259 119.667 275 125C291 131 303.667 137.667 313 145C327.667 155.667 326 168.667 308 184C292.667 196.667 275 203 255 203ZM82 203C58.6667 203 39.3333 194.333 24 177C8 160.333 2.00001 137 6.00002 107C7.33333 95 11.3333 82.6667 18 70C24 58 30.3334 48.3333 37 41C43 33.6667 50.3334 25.6667 59 17C67 9 71.6667 4.00001 73 1.99999C74.3334 0.666677 76.3334 1.94755e-05 79 1.97086e-05C81 1.98834e-05 82.3334 1.00001 83 2.99998C84.3334 5.66665 84.3334 7.66667 83 9.00002C61.6667 31.6667 47.6667 49.6667 41 63C33.6667 77 33.3333 87.6667 40 95C46 102.333 54 107.667 64 111C73.3333 115 86.3333 119.667 103 125C119 131 131.667 137.667 141 145C155 155.667 153.333 168.667 136 184C120 196.667 102 203 82 203Z" fill="#ECDFD4"></path>
</svg>